<?xml version="1.0" encoding="UTF-8"?>
<svg width="400px" height="400px" viewBox="0 0 400 400" version="1.1" xmlns="http://www.w3.org/2000/svg" xmlns:xlink="http://www.w3.org/1999/xlink">
    <g stroke="none" stroke-width="1" fill="none" fill-rule="evenodd">
        <circle fill="#FF8C69" cx="200" cy="200" r="200"></circle>
        <g transform="translate(80.000000, 80.000000)">
            <path d="M120,0 C186.274173,0 240,53.7258267 240,120 C240,186.274173 186.274173,240 120,240 C53.7258267,240 0,186.274173 0,120 C0,53.7258267 53.7258267,0 120,0 Z M120,20 C64.771525,20 20,64.771525 20,120 C20,175.228475 64.771525,220 120,220 C175.228475,220 220,175.228475 220,120 C220,64.771525 175.228475,20 120,20 Z" fill="#FFFFFF"></path>
            
            <!-- Breakfast -->
            <rect fill="#FFFFFF" x="60" y="60" width="40" height="60" rx="5"></rect>
            <rect fill="#FFFFFF" x="110" y="60" width="40" height="60" rx="5"></rect>
            <path d="M60,95 L150,95" stroke="#FF8C69" stroke-width="5" stroke-linecap="round"></path>
            
            <!-- Lunch -->
            <path d="M120,120 C140.987383,120 160,139.012617 160,160 C160,180.987383 140.987383,200 120,200 C99.0126173,200 80,180.987383 80,160 C80,139.012617 99.0126173,120 120,120 Z M120,140 C110.058874,140 102,148.058874 102,158 C102,167.941126 110.058874,176 120,176 C129.941126,176 138,167.941126 138,158 C138,148.058874 129.941126,140 120,140 Z" fill="#FFFFFF"></path>
            <path d="M116,150 L124,150 C126.209139,150 128,151.790861 128,154 L128,170 L112,170 L112,154 C112,151.790861 113.790861,150 116,150 Z" fill="#FFFFFF"></path>
        </g>
    </g>
</svg>